<?xml version="1.0" encoding="UTF-8" standalone="no"?>
<svg
   xmlns:dc="http://purl.org/dc/elements/1.1/"
   xmlns:cc="http://creativecommons.org/ns#"
   xmlns:rdf="http://www.w3.org/1999/02/22-rdf-syntax-ns#"
   xmlns:svg="http://www.w3.org/2000/svg"
   xmlns="http://www.w3.org/2000/svg"
   xmlns:sodipodi="http://sodipodi.sourceforge.net/DTD/sodipodi-0.dtd"
   xmlns:inkscape="http://www.inkscape.org/namespaces/inkscape"
   sodipodi:docname="flyingberry.svg"
   inkscape:version="1.0beta2 (unknown)"
   id="svg8"
   version="1.1"
   viewBox="0 0 175.55307 89.143852"
   height="89.143852mm"
   width="175.55307mm">
  <defs
     id="defs2" />
  <sodipodi:namedview
     fit-margin-bottom="1"
     fit-margin-right="1"
     fit-margin-left="1"
     fit-margin-top="1"
     inkscape:window-maximized="1"
     inkscape:window-y="0"
     inkscape:window-x="0"
     inkscape:window-height="1053"
     inkscape:window-width="1920"
     inkscape:snap-bbox="false"
     showgrid="false"
     inkscape:document-rotation="0"
     inkscape:current-layer="layer1"
     inkscape:document-units="mm"
     inkscape:cy="142.55238"
     inkscape:cx="337.26028"
     inkscape:zoom="1.4371561"
     inkscape:pageshadow="2"
     inkscape:pageopacity="0.0"
     borderopacity="1.0"
     bordercolor="#666666"
     pagecolor="#ffffff"
     id="base" />
  <metadata
     id="metadata5">
    <rdf:RDF>
      <cc:Work
         rdf:about="">
        <dc:format>image/svg+xml</dc:format>
        <dc:type
           rdf:resource="http://purl.org/dc/dcmitype/StillImage" />
        <dc:title></dc:title>
      </cc:Work>
    </rdf:RDF>
  </metadata>
  <g
     transform="translate(-14.685538,-10.085756)"
     id="layer1"
     inkscape:groupmode="layer"
     inkscape:label="Layer 1">
    <g
       transform="matrix(0.784703,0,0,0.784703,20.584951,-14.15631)"
       id="g203">
      <path
         id="path2836"
         style="color:#000000;text-indent:0;text-transform:none;fill:#000000;stroke-width:0.213287"
         d="m 212.89436,32.167937 c -17.29872,9.099265 -33.84398,20.916138 -51.77101,27.740741 -7.28825,3.071713 -15.43722,5.577926 -19.75562,16.459448 -2.15048,5.693288 -2.0458,16.185205 2.2571,22.269325 10.03375,10.872729 32.69291,4.693599 12.15287,3.473529 -4.1161,-0.2445 -8.47927,-1.86566 -11.92747,-7.860039 -3.07155,-7.184085 -1.23593,-15.350929 1.47706,-19.062277 6.3363,-8.951417 15.37885,-10.034225 23.32768,-14.029048 15.07133,-6.716895 29.34463,-16.26605 43.99864,-24.460057 -0.15642,11.16123 -5.76544,15.982014 -10.76908,18.827629 -6.90891,4.656045 -14.22223,8.052664 -21.86261,9.922726 0.83214,7.72996 6.02801,1.413271 8.50315,1.694377 5.10268,-1.959504 9.99682,-4.726182 14.78889,-7.796377 -4.93153,11.381051 -13.67771,14.097515 -21.24197,18.790578 -2.20607,2.045561 -6.36327,1.102616 -7.51767,4.280769 2.40397,5.991037 6.08412,-0.486628 8.87894,-0.39111 3.57884,-1.800071 7.0064,-4.120682 10.54163,-6.071608 -1.24846,9.923074 -6.67768,16.673908 -11.34637,20.654098 -17.7233,6.360539 -23.19401,5.863729 -26.85082,5.500339 -1.73971,7.43147 25.09183,-2.03268 27.20878,-2.706879 6.5554,-4.08033 12.27676,-11.551613 13.89168,-24.433901 2.42237,-5.729849 7.66245,-6.155525 8.53306,-14.536159 2.42003,-6.113726 7.29792,-7.792639 8.70425,-15.594764 0.55132,-2.768135 2.01504,-11.621045 -1.22043,-12.671205 z"
         inkscape:connector-curvature="0"
         sodipodi:nodetypes="ccccscccccccccccccccccccc" />
      <path
         sodipodi:nodetypes="ccccscccccccccccccccccccc"
         inkscape:connector-curvature="0"
         d="M -4.2112693,32.167668 C 13.087442,41.266933 29.632707,53.083806 47.559744,59.90841 c 7.28825,3.071712 15.43722,5.577925 19.75562,16.459442 2.15048,5.69329 2.0458,16.185207 -2.2571,22.269327 -10.03375,10.872731 -32.692915,4.693601 -12.15287,3.473531 4.1161,-0.2445 8.47927,-1.86566 11.92747,-7.860041 3.07155,-7.184077 1.23593,-15.350927 -1.47706,-19.062277 C 57.019504,66.236979 47.976954,65.154169 40.028123,61.159347 24.956784,54.442452 10.683482,44.893297 -3.9705196,36.69929 c 0.15642,11.16123 5.7654365,15.982014 10.7690738,18.827629 6.9089078,4.656044 14.2222278,8.052664 21.8626118,9.922726 -0.83214,7.729957 -6.028013,1.413272 -8.503154,1.694379 -5.10268,-1.959505 -9.99682,-4.726184 -14.7888872,-7.79638 4.9315272,11.381048 13.6777072,14.097518 21.2419702,18.790578 2.206071,2.04556 6.363274,1.10262 7.517675,4.28077 -2.403972,5.99104 -6.084124,-0.48663 -8.878946,-0.39111 -3.578841,-1.80007 -7.006402,-4.12068 -10.541632,-6.07161 1.24846,9.92308 6.67768,16.673917 11.346373,20.654097 17.723309,6.360541 23.194019,5.863731 26.850829,5.500341 1.73971,7.43147 -25.091838,-2.03268 -27.208789,-2.706881 C 19.141202,95.323499 13.419842,87.852222 11.804922,74.969932 9.3825527,69.240082 4.1424757,68.814407 3.271866,60.433772 0.85183753,54.320046 -4.0260496,52.641133 -5.4323787,44.839008 -5.9836984,42.070873 -7.4474175,33.217963 -4.2119493,32.167803 Z"
         style="color:#000000;text-indent:0;text-transform:none;fill:#000000;stroke-width:0.213287"
         id="path2836-5" />
      <g
         id="g3787"
         transform="matrix(0.17454593,0,0,0.17454593,54.063689,18.006707)">
        <path
           id="path3737"
           d="m 124.0333,206.187 c -34.562,20.09 -64.201,46.523 -64,111.38 l -5.0625,9.0312 c -39.63,24.1 -75.285,101.56 -19.53,164.52 3.6419,19.708 9.7496,33.864 15.188,49.531 8.1338,63.131 61.218,92.692 75.219,96.188 20.517,15.628 42.368,30.457 71.938,40.844 27.875,28.749 58.074,39.706 88.438,39.688 0.44515,-2.8e-4 0.89853,0.005 1.3438,0 30.364,0.0189 60.562,-10.938 88.438,-39.688 29.569,-10.387 51.421,-25.216 71.938,-40.844 14.001,-3.4959 67.085,-33.057 75.219,-96.188 5.4379,-15.667 11.546,-29.823 15.188,-49.531 55.754,-62.965 20.1,-140.43 -19.531,-164.53 l -5.07,-9.03 c 0.20067,-64.852 -29.438,-91.285 -64,-111.38 -127.86813,-51.84981 -272.28387,-22.61868 -325.7163,0.009 z"
           inkscape:connector-curvature="0"
           style="fill:#000000"
           sodipodi:nodetypes="cccccccccccccccccc" />
        <path
           id="path3743"
           transform="matrix(1.131107,0,0,1.1280497,-43.139135,-68.310983)"
           d="m 365.2,521.85 a 71.956,66.532 0 1 1 -143.91,0 71.956,66.532 0 1 1 143.91,0 z"
           inkscape:connector-curvature="0"
           style="fill:#bc1142" />
        <path
           id="path3745"
           transform="matrix(0.76741684,-1.1613112,2.171115,1.4224368,-560.88858,217.68859)"
           d="m 262.84,276.65 a 61.875,28.125 0 1 1 -123.75,0 61.875,28.125 0 1 1 123.75,0 z"
           inkscape:connector-curvature="0"
           style="fill:#bc1142" />
        <path
           id="path3747"
           transform="matrix(-0.76741684,-1.1613112,-2.171115,1.4224368,1134.8288,213.68859)"
           d="m 262.84,276.65 a 61.875,28.125 0 1 1 -123.75,0 61.875,28.125 0 1 1 123.75,0 z"
           inkscape:connector-curvature="0"
           style="fill:#bc1142" />
        <path
           id="path3749"
           d="M 72.91,342.09 C 109.32,332.33 85.202,492.72 55.577,479.56 22.99,453.35 12.494,376.59 72.91,342.09 Z"
           inkscape:connector-curvature="0"
           style="fill:#bc1142" />
        <path
           id="path3751"
           d="M 493.68,340.09 C 457.266,330.3331 481.388,490.73 511.013,477.57 543.6,451.357 554.096,374.59 493.68,340.09 Z"
           inkscape:connector-curvature="0"
           style="fill:#bc1142" />
        <path
           id="path3753"
           d="m 369.97,220.65 c 62.835,-10.61 115.12,26.722 113.01,94.858 -2.0669,26.121 -136.16,-90.969 -113.01,-94.858 z"
           inkscape:connector-curvature="0"
           style="fill:#bc1142" />
        <path
           id="path3755"
           d="M 196.36,218.65 C 133.52,208.04 81.24,245.38 83.35,313.51 85.417,339.63 219.51,222.54 196.36,218.65 Z"
           inkscape:connector-curvature="0"
           style="fill:#bc1142" />
        <path
           id="path3757"
           d="m 286.62,202.76 c -37.503,-0.97548 -73.495,27.834 -73.582,44.544 -0.10462,20.304 29.651,41.093 73.837,41.62 45.123,0.32321 73.916,-16.64 74.061,-37.594 0.16484,-23.74 -41.039,-48.937 -74.317,-48.571 z"
           inkscape:connector-curvature="0"
           style="fill:#bc1142" />
        <path
           id="path3759"
           d="m 288.91,619.12 c 32.697,-1.4271 76.571,10.532 76.657,26.396 0.5427,15.405 -39.79,50.211 -78.826,49.538 -40.427,1.7439 -80.069,-33.116 -79.55,-45.199 -0.60506,-17.716 49.226,-31.548 81.719,-30.735 z"
           inkscape:connector-curvature="0"
           style="fill:#bc1142" />
        <path
           id="path3761"
           d="m 168.14,525.1 c 23.279,28.046 33.891,77.319 14.464,91.844 -18.379,11.088 -63.012,6.5216 -94.736,-39.052 -21.395,-38.242 -18.638,-77.157 -3.6159,-88.589 22.464,-13.684 57.173,4.799 83.889,35.797 z"
           inkscape:connector-curvature="0"
           style="fill:#bc1142" />
        <path
           id="path3763"
           d="m 405.02,516.21 c -25.187,29.502 -39.212,83.31 -20.838,100.64 17.568,13.464 64.729,11.582 99.566,-36.756 25.296,-32.465 16.82,-86.682 2.3708,-101.08 -21.464,-16.602 -52.277,4.6449 -81.099,37.188 z"
           inkscape:connector-curvature="0"
           style="fill:#bc1142" />
      </g>
    </g>
  </g>
</svg>
